<svg version="1.1" id="Layer_1" xmlns="http://www.w3.org/2000/svg" xmlns:xlink="http://www.w3.org/1999/xlink" x="0px" y="0px"
	 width="100%" viewBox="0 0 298 96" enable-background="new 0 0 298 96" xml:space="preserve">
<path fill="#16181D" opacity="1.000000" stroke="none" 
	d="
M215.000000,97.000000 
	C143.333359,97.000000 72.166710,97.000000 1.000048,97.000000 
	C1.000032,65.000031 1.000032,33.000061 1.000016,1.000069 
	C100.333275,1.000046 199.666550,1.000046 298.999878,1.000023 
	C298.999908,32.999931 298.999908,64.999863 298.999939,96.999893 
	C271.166656,97.000000 243.333328,97.000000 215.000000,97.000000 
M44.126484,53.718853 
	C44.119366,54.477997 44.112247,55.237137 43.678638,56.526501 
	C41.542271,58.482552 39.405903,60.438602 37.269535,62.394653 
	C44.436646,61.503868 49.406654,56.633717 55.025539,53.011982 
	C55.025539,53.011982 55.038868,53.099461 55.619568,53.089149 
	C56.061848,52.730133 56.504128,52.371117 57.620316,51.750294 
	C59.783707,49.377663 59.404243,47.304604 56.781956,45.637337 
	C52.709064,43.047768 48.588108,40.533794 44.678185,38.106152 
	C44.093983,40.039986 43.611317,41.637711 42.524422,43.252331 
	C41.685177,44.041561 41.993538,44.794586 43.135418,45.418613 
	C42.093334,46.068092 40.879471,46.824623 39.263153,47.831989 
	C41.452644,48.938076 42.761894,49.599483 43.449131,50.421127 
	C43.029961,50.501270 42.610786,50.581413 41.498192,50.483898 
	C41.052715,51.043171 40.607243,51.602444 40.161770,52.161716 
	C41.442238,52.413624 42.722702,52.665527 44.016781,52.986332 
	C44.016781,52.986332 44.081451,52.958950 44.126484,53.718853 
M27.880568,49.026882 
	C29.199314,48.542610 30.518061,48.058338 31.836805,47.574062 
	C30.549572,47.064262 29.267536,46.540573 27.971119,46.055309 
	C27.679966,45.946331 27.338530,45.971691 27.015053,45.473003 
	C27.015053,45.473003 26.986597,45.011650 27.742493,44.734219 
	C29.171286,44.494061 30.600080,44.253899 32.028873,44.013741 
	C32.026382,43.596024 32.023895,43.178307 32.021404,42.760590 
	C30.634344,42.305912 29.247282,41.851234 27.794250,41.374935 
	C28.467632,35.938416 32.041176,34.212944 37.377228,33.619736 
	C35.158482,32.229351 33.553825,31.223789 31.314735,29.864758 
	C30.618185,29.427429 29.973957,28.817661 29.214621,28.587261 
	C27.415213,28.041279 25.131174,26.832745 23.855410,27.483831 
	C22.681305,28.083035 22.285467,30.725416 22.060823,32.531670 
	C21.797905,34.645664 22.091200,36.828835 21.996756,39.731068 
	C22.048754,40.488960 22.100752,41.246853 22.043297,42.914635 
	C22.072828,46.265743 22.102360,49.616856 22.001617,53.880131 
	C22.047226,57.249836 22.092834,60.619545 22.005774,64.827049 
	C22.063360,70.242989 23.776274,72.471367 26.969154,70.699020 
	C30.670588,68.644379 34.973454,66.585632 35.687931,62.327061 
	C33.071106,60.627773 31.047544,59.313732 28.751156,57.349487 
	C28.316397,56.034363 27.881636,54.719234 27.444185,53.395969 
	C29.162752,53.011433 30.558134,52.699211 32.989685,52.155140 
	C30.278975,50.747639 28.696192,49.925800 27.062748,49.074951 
	C27.062748,49.074951 27.069439,49.132271 27.880568,49.026882 
M205.012985,59.247334 
	C205.012985,50.684105 205.012985,42.120876 205.012985,33.665344 
	C202.136230,33.665344 200.048889,33.665344 197.306427,33.665344 
	C197.306427,38.280716 197.306427,42.598156 197.306427,46.930416 
	C190.662720,43.469852 191.559143,31.615248 180.661499,33.662254 
	C180.661499,43.255470 180.661499,52.485714 180.661499,61.767483 
	C183.200195,61.767483 185.449173,61.767483 188.086624,61.767483 
	C188.086624,57.143795 188.086624,52.760994 188.086624,47.011738 
	C191.641785,52.141121 194.363983,56.196781 197.224915,60.152081 
	C199.182571,62.858601 202.773819,62.805813 205.012985,59.247334 
M71.611145,45.045044 
	C69.744896,50.572334 67.878647,56.099625 65.731598,62.458557 
	C69.112198,61.944683 73.617645,62.016335 73.824883,61.107685 
	C75.371689,54.325653 80.255371,56.444679 84.571098,56.229630 
	C85.293350,58.169590 85.965134,59.974007 86.656242,61.830338 
	C89.246941,61.830338 91.686935,61.830338 94.641975,61.830338 
	C91.633209,52.750061 88.778793,43.977131 85.753685,35.263458 
	C85.466942,34.437492 84.184586,33.604530 83.237587,33.417625 
	C77.061790,32.198723 75.659309,33.085503 73.602455,39.132614 
	C73.018265,40.850132 72.465233,42.578247 71.611145,45.045044 
M133.287994,41.514954 
	C130.293259,39.529873 127.326004,39.700916 124.473373,41.756466 
	C119.264465,45.509914 119.197723,57.151775 124.439110,60.839558 
	C125.592102,61.650787 127.195488,62.228176 128.586899,62.218994 
	C132.975662,62.190056 137.362259,61.831329 141.792145,61.597984 
	C141.792145,52.275078 141.792145,42.920731 141.792145,33.757156 
	C139.296371,33.757156 137.237442,33.757156 135.543823,33.757156 
	C134.975220,36.778252 134.488037,39.366791 133.287994,41.514954 
M227.847504,55.044102 
	C225.351868,55.551270 222.862045,56.405811 220.358597,56.447853 
	C218.583969,56.477657 216.790924,55.409649 215.006088,54.831673 
	C215.174225,54.264202 215.342361,53.696735 215.510498,53.129265 
	C219.901978,53.129265 224.293457,53.129265 228.642899,53.129265 
	C229.000198,46.425495 227.033661,42.640469 222.600174,41.000515 
	C217.469986,39.102852 212.522751,40.433998 209.736404,44.461761 
	C207.016632,48.393307 207.136749,55.420750 210.107773,58.913631 
	C213.292557,62.657776 217.545593,63.084297 221.936432,62.039085 
	C225.405014,61.213413 228.470917,59.587070 227.847504,55.044102 
M110.110771,42.062347 
	C110.103790,45.060528 110.422791,48.109447 109.966949,51.037758 
	C109.695740,52.780018 108.205864,54.332573 107.263885,55.970417 
	C106.183342,54.240227 104.461365,52.612617 104.164612,50.757080 
	C103.651382,47.547909 104.022255,44.197338 104.022255,40.613705 
	C101.520607,40.613705 99.453796,40.613705 96.990318,40.613705 
	C96.990318,45.880733 96.412712,51.094837 97.250053,56.070847 
	C97.631042,58.334957 100.566429,61.457146 102.770920,61.862244 
	C107.574173,62.744884 112.651695,62.134914 117.839561,62.134914 
	C117.839561,56.345341 117.841156,51.367306 117.839149,46.389275 
	C117.836456,39.688198 116.974037,39.096542 110.110771,42.062347 
M158.389450,58.972446 
	C159.435471,59.769592 160.388885,60.751369 161.544098,61.330860 
	C165.794540,63.463028 172.021835,62.535217 174.971283,59.461525 
	C178.191574,56.105572 178.896667,49.937195 176.566696,45.504307 
	C174.502029,41.576172 169.383896,39.341537 164.632080,40.293522 
	C156.618973,41.898880 153.735519,49.685146 158.389450,58.972446 
M240.645660,62.615494 
	C247.944946,61.621746 250.874893,59.651436 250.980881,55.483158 
	C251.104691,50.614246 247.590179,49.581429 243.806442,48.874550 
	C243.691849,48.853138 243.658188,48.398418 243.567291,48.076694 
	C245.710312,47.910240 247.817169,47.746593 249.921005,47.583179 
	C249.362793,41.556168 244.788361,39.140759 237.802322,40.628345 
	C234.045135,41.428394 231.117142,42.895237 231.072128,47.208355 
	C231.025620,51.664062 234.436661,52.863033 237.883484,53.879448 
	C239.613937,54.389732 241.363739,54.834343 243.104797,55.308655 
	C243.003189,55.818737 242.901596,56.328819 242.799988,56.838898 
	C238.951843,56.073227 235.103699,55.307552 230.821045,54.455421 
	C231.295731,61.003014 235.523026,61.806347 240.645660,62.615494 
M262.486755,62.464012 
	C263.883850,62.177563 265.280975,61.891109 266.706360,61.598862 
	C264.923248,56.597477 263.267090,51.952061 261.613037,47.312614 
	C265.990814,45.560474 267.349426,42.295353 265.502563,40.489792 
	C264.108307,39.126690 262.796844,37.678841 260.814514,35.605629 
	C259.750061,35.605629 257.529449,35.605629 256.313446,35.605629 
	C254.914307,37.757477 253.726044,39.124271 253.082977,40.711891 
	C252.512665,42.119923 252.038300,44.986664 252.392776,45.135574 
	C257.375793,47.228878 254.719101,51.424385 254.862213,54.502209 
	C255.086197,59.319469 256.864319,61.987770 262.486755,62.464012 
M145.888443,49.547859 
	C145.888443,53.625168 145.888443,57.702480 145.888443,61.771355 
	C148.544403,61.771355 150.610260,61.771355 152.788513,61.771355 
	C152.788513,54.665680 152.788513,47.796619 152.788513,40.633949 
	C150.517456,40.633949 148.463303,40.633949 146.460312,40.633949 
	C146.254898,41.061405 146.006241,41.343582 145.998459,41.632263 
	C145.936081,43.944496 145.919235,46.257961 145.888443,49.547859 
M153.031601,34.511929 
	C151.392395,33.668316 149.814896,32.527866 148.075485,32.166153 
	C147.568893,32.060810 145.850342,34.319206 146.023407,35.244125 
	C146.266403,36.542931 148.208267,38.742249 148.635025,38.572624 
	C150.283630,37.917362 151.619080,36.474228 153.031601,34.511929 
z"/>
<path fill="#F3F3F3" opacity="1.000000" stroke="none" 
	d="
M205.010773,59.717941 
	C202.773819,62.805813 199.182571,62.858601 197.224915,60.152081 
	C194.363983,56.196781 191.641785,52.141121 188.086624,47.011738 
	C188.086624,52.760994 188.086624,57.143795 188.086624,61.767483 
	C185.449173,61.767483 183.200195,61.767483 180.661499,61.767483 
	C180.661499,52.485714 180.661499,43.255470 180.661499,33.662254 
	C191.559143,31.615248 190.662720,43.469852 197.306427,46.930416 
	C197.306427,42.598156 197.306427,38.280716 197.306427,33.665344 
	C200.048889,33.665344 202.136230,33.665344 205.012985,33.665344 
	C205.012985,42.120876 205.012985,50.684105 205.010773,59.717941 
z"/>
<path fill="#F3F3F4" opacity="1.000000" stroke="none" 
	d="
M71.754524,44.673271 
	C72.465233,42.578247 73.018265,40.850132 73.602455,39.132614 
	C75.659309,33.085503 77.061790,32.198723 83.237587,33.417625 
	C84.184586,33.604530 85.466942,34.437492 85.753685,35.263458 
	C88.778793,43.977131 91.633209,52.750061 94.641975,61.830338 
	C91.686935,61.830338 89.246941,61.830338 86.656242,61.830338 
	C85.965134,59.974007 85.293350,58.169590 84.571098,56.229630 
	C80.255371,56.444679 75.371689,54.325653 73.824883,61.107685 
	C73.617645,62.016335 69.112198,61.944683 65.731598,62.458557 
	C67.878647,56.099625 69.744896,50.572334 71.754524,44.673271 
z"/>
<path fill="#FAFAFA" opacity="1.000000" stroke="none" 
	d="
M133.644424,41.735138 
	C134.488037,39.366791 134.975220,36.778252 135.543823,33.757156 
	C137.237442,33.757156 139.296371,33.757156 141.792145,33.757156 
	C141.792145,42.920731 141.792145,52.275078 141.792145,61.597984 
	C137.362259,61.831329 132.975662,62.190056 128.586899,62.218994 
	C127.195488,62.228176 125.592102,61.650787 124.439110,60.839558 
	C119.197723,57.151775 119.264465,45.509914 124.473373,41.756466 
	C127.326004,39.700916 130.293259,39.529873 133.644424,41.735138 
M134.463577,48.484055 
	C133.024994,47.940929 131.586426,47.397804 130.147842,46.854679 
	C129.602371,49.056553 128.658829,51.266594 128.703751,53.456356 
	C128.722198,54.355347 130.872177,55.210613 132.052551,56.085766 
	C133.039337,54.436676 134.102646,52.826107 134.964523,51.114128 
	C135.211044,50.624454 134.874130,49.841045 134.463577,48.484055 
z"/>
<path fill="#F8F8F8" opacity="1.000000" stroke="none" 
	d="
M228.227921,55.162815 
	C228.470917,59.587070 225.405014,61.213413 221.936432,62.039085 
	C217.545593,63.084297 213.292557,62.657776 210.107773,58.913631 
	C207.136749,55.420750 207.016632,48.393307 209.736404,44.461761 
	C212.522751,40.433998 217.469986,39.102852 222.600174,41.000515 
	C227.033661,42.640469 229.000198,46.425495 228.642899,53.129265 
	C224.293457,53.129265 219.901978,53.129265 215.510498,53.129265 
	C215.342361,53.696735 215.174225,54.264202 215.006088,54.831673 
	C216.790924,55.409649 218.583969,56.477657 220.358597,56.447853 
	C222.862045,56.405811 225.351868,55.551270 228.227921,55.162815 
z"/>
<path fill="#F5F5F5" opacity="1.000000" stroke="none" 
	d="
M110.199615,41.632080 
	C116.974037,39.096542 117.836456,39.688198 117.839149,46.389275 
	C117.841156,51.367306 117.839561,56.345341 117.839561,62.134914 
	C112.651695,62.134914 107.574173,62.744884 102.770920,61.862244 
	C100.566429,61.457146 97.631042,58.334957 97.250053,56.070847 
	C96.412712,51.094837 96.990318,45.880733 96.990318,40.613705 
	C99.453796,40.613705 101.520607,40.613705 104.022255,40.613705 
	C104.022255,44.197338 103.651382,47.547909 104.164612,50.757080 
	C104.461365,52.612617 106.183342,54.240227 107.263885,55.970417 
	C108.205864,54.332573 109.695740,52.780018 109.966949,51.037758 
	C110.422791,48.109447 110.103790,45.060528 110.199615,41.632080 
z"/>
<path fill="#F6F6F7" opacity="1.000000" stroke="none" 
	d="
M158.169983,58.654213 
	C153.735519,49.685146 156.618973,41.898880 164.632080,40.293522 
	C169.383896,39.341537 174.502029,41.576172 176.566696,45.504307 
	C178.896667,49.937195 178.191574,56.105572 174.971283,59.461525 
	C172.021835,62.535217 165.794540,63.463028 161.544098,61.330860 
	C160.388885,60.751369 159.435471,59.769592 158.169983,58.654213 
M163.958679,49.045246 
	C163.983383,50.684952 163.602219,52.485367 164.166840,53.911285 
	C164.585480,54.968609 166.359238,56.285782 167.299057,56.126701 
	C168.334641,55.951401 169.891190,54.177486 169.835464,53.177109 
	C169.708282,50.893276 168.735519,48.656540 168.106247,46.400673 
	C166.784134,47.009224 165.462021,47.617771 163.958679,49.045246 
z"/>
<path fill="#F5F5F5" opacity="1.000000" stroke="none" 
	d="
M240.255905,62.541809 
	C235.523026,61.806347 231.295731,61.003014 230.821045,54.455421 
	C235.103699,55.307552 238.951843,56.073227 242.799988,56.838898 
	C242.901596,56.328819 243.003189,55.818737 243.104797,55.308655 
	C241.363739,54.834343 239.613937,54.389732 237.883484,53.879448 
	C234.436661,52.863033 231.025620,51.664062 231.072128,47.208355 
	C231.117142,42.895237 234.045135,41.428394 237.802322,40.628345 
	C244.788361,39.140759 249.362793,41.556168 249.921005,47.583179 
	C247.817169,47.746593 245.710312,47.910240 243.567291,48.076694 
	C243.658188,48.398418 243.691849,48.853138 243.806442,48.874550 
	C247.590179,49.581429 251.104691,50.614246 250.980881,55.483158 
	C250.874893,59.651436 247.944946,61.621746 240.255905,62.541809 
z"/>
<path fill="#F1F1F1" opacity="1.000000" stroke="none" 
	d="
M262.114960,62.404625 
	C256.864319,61.987770 255.086197,59.319469 254.862213,54.502209 
	C254.719101,51.424385 257.375793,47.228878 252.392776,45.135574 
	C252.038300,44.986664 252.512665,42.119923 253.082977,40.711891 
	C253.726044,39.124271 254.914307,37.757477 256.313446,35.605629 
	C257.529449,35.605629 259.750061,35.605629 260.814514,35.605629 
	C262.796844,37.678841 264.108307,39.126690 265.502563,40.489792 
	C267.349426,42.295353 265.990814,45.560474 261.613037,47.312614 
	C263.267090,51.952061 264.923248,56.597477 266.706360,61.598862 
	C265.280975,61.891109 263.883850,62.177563 262.114960,62.404625 
z"/>
<path fill="#F1A583" opacity="1.000000" stroke="none" 
	d="
M43.128651,43.235432 
	C43.611317,41.637711 44.093983,40.039986 44.678185,38.106152 
	C48.588108,40.533794 52.709064,43.047768 56.781956,45.637337 
	C59.404243,47.304604 59.783707,49.377663 56.990139,51.886612 
	C55.919598,52.381779 55.479233,52.740620 55.038868,53.099461 
	C55.038868,53.099461 55.025539,53.011982 54.592339,53.004944 
	C51.074703,52.945126 47.990269,52.892338 44.696213,52.845085 
	C44.486599,52.850624 44.081451,52.958950 44.081451,52.958950 
	C44.081451,52.958950 44.016781,52.986332 43.888054,52.727230 
	C43.236752,51.865940 42.714184,51.263752 42.191616,50.661560 
	C42.610786,50.581413 43.029961,50.501270 44.002380,50.407875 
	C46.539345,47.518024 45.498421,45.244293 43.128651,43.235432 
z"/>
<path fill="#FBFBFB" opacity="1.000000" stroke="none" 
	d="
M145.888443,49.059456 
	C145.919235,46.257961 145.936081,43.944496 145.998459,41.632263 
	C146.006241,41.343582 146.254898,41.061405 146.460312,40.633949 
	C148.463303,40.633949 150.517456,40.633949 152.788513,40.633949 
	C152.788513,47.796619 152.788513,54.665680 152.788513,61.771355 
	C150.610260,61.771355 148.544403,61.771355 145.888443,61.771355 
	C145.888443,57.702480 145.888443,53.625168 145.888443,49.059456 
z"/>
<path fill="#E58170" opacity="1.000000" stroke="none" 
	d="
M29.023987,57.999695 
	C31.047544,59.313732 33.071106,60.627773 35.687931,62.327061 
	C34.973454,66.585632 30.670588,68.644379 26.969154,70.699020 
	C23.776274,72.471367 22.063360,70.242989 22.403843,64.359192 
	C24.875938,61.927456 26.949963,59.963577 29.023987,57.999695 
z"/>
<path fill="#E4847D" opacity="1.000000" stroke="none" 
	d="
M28.887571,57.674591 
	C26.949963,59.963577 24.875938,61.927456 22.470179,63.940292 
	C22.092834,60.619545 22.047226,57.249836 22.302183,53.200340 
	C24.106302,51.381687 25.609856,50.242825 27.113411,49.103962 
	C28.696192,49.925800 30.278975,50.747639 32.989685,52.155140 
	C30.558134,52.699211 29.162752,53.011433 27.444185,53.395969 
	C27.881636,54.719234 28.316397,56.034363 28.887571,57.674591 
z"/>
<path fill="#DD7B7F" opacity="1.000000" stroke="none" 
	d="
M22.152750,42.004745 
	C22.100752,41.246853 22.048754,40.488960 22.406424,39.312840 
	C25.860451,36.002480 28.904810,33.110352 31.949169,30.218224 
	C33.553825,31.223789 35.158482,32.229351 37.377228,33.619736 
	C32.041176,34.212944 28.467632,35.938416 27.794250,41.374935 
	C29.247282,41.851234 30.634344,42.305912 32.021404,42.760590 
	C32.023895,43.178307 32.026382,43.596024 32.028873,44.013741 
	C30.600080,44.253899 29.171286,44.494061 27.083210,44.725861 
	C25.000200,43.813248 23.576475,42.908997 22.152750,42.004745 
z"/>
<path fill="#EC858D" opacity="1.000000" stroke="none" 
	d="
M31.631950,30.041491 
	C28.904810,33.110352 25.860451,36.002480 22.479652,38.938305 
	C22.091200,36.828835 21.797905,34.645664 22.060823,32.531670 
	C22.285467,30.725416 22.681305,28.083035 23.855410,27.483831 
	C25.131174,26.832745 27.415213,28.041279 29.214621,28.587261 
	C29.973957,28.817661 30.618185,29.427429 31.631950,30.041491 
z"/>
<path fill="#D2665E" opacity="1.000000" stroke="none" 
	d="
M44.905830,52.839554 
	C47.990269,52.892338 51.074703,52.945126 54.620556,53.039024 
	C49.406654,56.633717 44.436646,61.503868 37.269535,62.394653 
	C39.405903,60.438602 41.542271,58.482552 44.117588,56.012772 
	C44.672970,54.612545 44.789402,53.726048 44.905830,52.839554 
z"/>
<path fill="#F7F7F7" opacity="1.000000" stroke="none" 
	d="
M153.051407,34.918293 
	C151.619080,36.474228 150.283630,37.917362 148.635025,38.572624 
	C148.208267,38.742249 146.266403,36.542931 146.023407,35.244125 
	C145.850342,34.319206 147.568893,32.060810 148.075485,32.166153 
	C149.814896,32.527866 151.392395,33.668316 153.051407,34.918293 
z"/>
<path fill="#E06568" opacity="1.000000" stroke="none" 
	d="
M22.098022,42.459690 
	C23.576475,42.908997 25.000200,43.813248 26.705261,44.864578 
	C26.986597,45.011650 27.015053,45.473003 27.012424,46.103752 
	C27.029676,47.533756 27.049557,48.333012 27.069439,49.132271 
	C27.069439,49.132271 27.062748,49.074951 27.088078,49.089455 
	C25.609856,50.242825 24.106302,51.381687 22.367321,52.744255 
	C22.102360,49.616856 22.072828,46.265743 22.098022,42.459690 
z"/>
<path fill="#C87371" opacity="1.000000" stroke="none" 
	d="
M42.826538,43.243881 
	C45.498421,45.244293 46.539345,47.518024 44.313385,50.327759 
	C42.761894,49.599483 41.452644,48.938076 39.263153,47.831989 
	C40.879471,46.824623 42.093334,46.068092 43.135418,45.418613 
	C41.993538,44.794586 41.685177,44.041561 42.826538,43.243881 
z"/>
<path fill="#E4847D" opacity="1.000000" stroke="none" 
	d="
M27.475002,49.079575 
	C27.049557,48.333012 27.029676,47.533756 27.015018,46.334854 
	C27.338530,45.971691 27.679966,45.946331 27.971119,46.055309 
	C29.267536,46.540573 30.549572,47.064262 31.836807,47.574066 
	C30.518061,48.058338 29.199314,48.542610 27.475002,49.079575 
z"/>
<path fill="#C87371" opacity="1.000000" stroke="none" 
	d="
M41.844902,50.572731 
	C42.714184,51.263752 43.236752,51.865940 43.881248,52.692780 
	C42.722702,52.665527 41.442238,52.413624 40.161770,52.161716 
	C40.607243,51.602444 41.052715,51.043171 41.844902,50.572731 
z"/>
<path fill="#C87371" opacity="1.000000" stroke="none" 
	d="
M44.696213,52.845089 
	C44.789402,53.726048 44.672970,54.612545 44.330833,55.747658 
	C44.112247,55.237137 44.119366,54.477997 44.103966,53.338902 
	C44.081451,52.958950 44.486599,52.850624 44.696213,52.845089 
z"/>
<path fill="#D2665E" opacity="1.000000" stroke="none" 
	d="
M55.329216,53.094307 
	C55.479233,52.740620 55.919598,52.381779 56.653183,52.017517 
	C56.504128,52.371117 56.061848,52.730133 55.329216,53.094307 
z"/>
<path fill="#222328" opacity="1.000000" stroke="none" 
	d="
M134.634155,48.838188 
	C134.874130,49.841045 135.211044,50.624454 134.964523,51.114128 
	C134.102646,52.826107 133.039337,54.436676 132.052551,56.085766 
	C130.872177,55.210613 128.722198,54.355347 128.703751,53.456356 
	C128.658829,51.266594 129.602371,49.056553 130.147842,46.854679 
	C131.586426,47.397804 133.024994,47.940929 134.634155,48.838188 
z"/>
<path fill="#1A1C21" opacity="1.000000" stroke="none" 
	d="
M164.049286,48.635780 
	C165.462021,47.617771 166.784134,47.009224 168.106262,46.400673 
	C168.735519,48.656540 169.708282,50.893276 169.835464,53.177109 
	C169.891190,54.177486 168.334641,55.951401 167.299057,56.126701 
	C166.359238,56.285782 164.585480,54.968609 164.166840,53.911285 
	C163.602219,52.485367 163.983383,50.684952 164.049286,48.635780 
z"/>
</svg>